<svg width="283" height="55" viewBox="0 0 283 55" fill="none" xmlns="http://www.w3.org/2000/svg">
<path d="M103.89 13.14C103.77 14.67 103.68 16.14 103.62 17.55C103.59 18.96 103.575 20.04 103.575 20.79C103.575 21.45 103.59 22.08 103.62 22.68C103.65 23.28 103.68 23.79 103.71 24.21H102.675C102.195 21.69 101.58 19.695 100.83 18.225C100.11 16.755 99.24 15.72 98.22 15.12C97.2 14.49 96 14.175 94.62 14.175H93.585V39.87C93.585 41.07 93.705 41.97 93.945 42.57C94.215 43.17 94.695 43.575 95.385 43.785C96.075 43.965 97.08 44.07 98.4 44.1V45C97.47 44.97 96.225 44.94 94.665 44.91C93.135 44.88 91.53 44.865 89.85 44.865C88.2 44.865 86.64 44.88 85.17 44.91C83.7 44.94 82.515 44.97 81.615 45V44.1C82.965 44.07 83.985 43.965 84.675 43.785C85.365 43.575 85.83 43.17 86.07 42.57C86.31 41.97 86.43 41.07 86.43 39.87V14.175H85.44C84.06 14.175 82.86 14.49 81.84 15.12C80.82 15.72 79.95 16.755 79.23 18.225C78.51 19.665 77.88 21.66 77.34 24.21H76.305C76.365 23.79 76.395 23.28 76.395 22.68C76.425 22.08 76.44 21.45 76.44 20.79C76.44 20.04 76.41 18.96 76.35 17.55C76.32 16.14 76.245 14.67 76.125 13.14C77.505 13.17 79.005 13.2 80.625 13.23C82.275 13.26 83.925 13.275 85.575 13.275C87.225 13.275 88.71 13.275 90.03 13.275C91.38 13.275 92.865 13.275 94.485 13.275C96.135 13.275 97.785 13.26 99.435 13.23C101.085 13.2 102.57 13.17 103.89 13.14ZM121.619 21.105C122.579 21.105 123.359 21.315 123.959 21.735C124.559 22.125 124.994 22.635 125.264 23.265C125.564 23.895 125.714 24.555 125.714 25.245C125.714 26.355 125.384 27.27 124.724 27.99C124.094 28.68 123.254 29.025 122.204 29.025C121.154 29.025 120.329 28.77 119.729 28.26C119.159 27.72 118.874 27.015 118.874 26.145C118.874 25.305 119.054 24.615 119.414 24.075C119.804 23.505 120.284 23.025 120.854 22.635C120.434 22.515 120.014 22.53 119.594 22.68C119.024 22.77 118.484 23.01 117.974 23.4C117.464 23.76 117.029 24.225 116.669 24.795C116.309 25.335 116.024 25.935 115.814 26.595C115.604 27.225 115.499 27.84 115.499 28.44V40.365C115.499 41.805 115.844 42.78 116.534 43.29C117.254 43.8 118.319 44.055 119.729 44.055V45C119.039 44.97 118.034 44.94 116.714 44.91C115.394 44.85 114.014 44.82 112.574 44.82C111.374 44.82 110.159 44.85 108.929 44.91C107.699 44.94 106.769 44.97 106.139 45V44.055C107.189 44.055 107.924 43.83 108.344 43.38C108.794 42.93 109.019 42.075 109.019 40.815V26.64C109.019 25.29 108.809 24.3 108.389 23.67C107.999 23.01 107.249 22.68 106.139 22.68V21.735C107.099 21.825 108.029 21.87 108.929 21.87C110.189 21.87 111.359 21.825 112.439 21.735C113.549 21.615 114.569 21.45 115.499 21.24V25.425C115.859 24.615 116.339 23.88 116.939 23.22C117.539 22.56 118.229 22.05 119.009 21.69C119.789 21.3 120.659 21.105 121.619 21.105ZM133.354 45.315C132.004 45.315 130.879 45.06 129.979 44.55C129.079 44.04 128.419 43.365 127.999 42.525C127.579 41.655 127.369 40.71 127.369 39.69C127.369 38.4 127.654 37.35 128.224 36.54C128.824 35.73 129.589 35.07 130.519 34.56C131.449 34.05 132.424 33.63 133.444 33.3C134.494 32.97 135.484 32.655 136.414 32.355C137.374 32.025 138.139 31.65 138.709 31.23C139.309 30.78 139.609 30.21 139.609 29.52V26.01C139.609 25.23 139.474 24.54 139.204 23.94C138.964 23.31 138.574 22.83 138.034 22.5C137.524 22.17 136.849 22.005 136.009 22.005C135.409 22.005 134.809 22.095 134.209 22.275C133.609 22.425 133.114 22.695 132.724 23.085C133.564 23.385 134.209 23.85 134.659 24.48C135.139 25.08 135.379 25.77 135.379 26.55C135.379 27.57 135.019 28.38 134.299 28.98C133.609 29.58 132.784 29.88 131.824 29.88C130.744 29.88 129.919 29.55 129.349 28.89C128.809 28.2 128.539 27.375 128.539 26.415C128.539 25.545 128.749 24.825 129.169 24.255C129.619 23.685 130.234 23.145 131.014 22.635C131.854 22.155 132.859 21.78 134.029 21.51C135.229 21.24 136.519 21.105 137.899 21.105C139.279 21.105 140.524 21.255 141.634 21.555C142.744 21.825 143.674 22.335 144.424 23.085C145.114 23.775 145.564 24.63 145.774 25.65C145.984 26.64 146.089 27.9 146.089 29.43V41.67C146.089 42.42 146.164 42.945 146.314 43.245C146.464 43.515 146.719 43.65 147.079 43.65C147.349 43.65 147.604 43.575 147.844 43.425C148.114 43.275 148.399 43.095 148.699 42.885L149.149 43.65C148.519 44.19 147.784 44.61 146.944 44.91C146.134 45.18 145.219 45.315 144.199 45.315C143.089 45.315 142.204 45.165 141.544 44.865C140.884 44.535 140.404 44.1 140.104 43.56C139.834 43.02 139.699 42.39 139.699 41.67C138.979 42.81 138.109 43.71 137.089 44.37C136.069 45 134.824 45.315 133.354 45.315ZM136.549 42.435C137.149 42.435 137.689 42.3 138.169 42.03C138.679 41.73 139.159 41.25 139.609 40.59V31.365C139.339 31.815 138.964 32.22 138.484 32.58C138.004 32.94 137.494 33.315 136.954 33.705C136.414 34.065 135.889 34.47 135.379 34.92C134.899 35.37 134.509 35.925 134.209 36.585C133.909 37.245 133.759 38.04 133.759 38.97C133.759 40.14 134.014 41.01 134.524 41.58C135.034 42.15 135.709 42.435 136.549 42.435ZM171.731 21.735V22.635C171.161 22.785 170.621 23.145 170.111 23.715C169.601 24.255 169.106 25.185 168.626 26.505L162.056 45.09C161.576 45.06 161.081 45.045 160.571 45.045C160.091 45.045 159.611 45.06 159.131 45.09L151.121 25.2C150.641 24.03 150.161 23.325 149.681 23.085C149.231 22.815 148.841 22.68 148.511 22.68V21.735C149.471 21.795 150.461 21.855 151.481 21.915C152.531 21.945 153.671 21.96 154.901 21.96C155.831 21.96 156.806 21.945 157.826 21.915C158.876 21.855 159.851 21.795 160.751 21.735V22.68C160.121 22.68 159.551 22.71 159.041 22.77C158.561 22.83 158.231 23.025 158.051 23.355C157.871 23.685 157.901 24.27 158.141 25.11L163.406 39.06L162.956 39.69L166.511 29.835C167.081 28.215 167.321 26.895 167.231 25.875C167.141 24.825 166.811 24.045 166.241 23.535C165.671 22.995 164.906 22.695 163.946 22.635V21.735C164.396 21.765 164.876 21.795 165.386 21.825C165.926 21.825 166.436 21.84 166.916 21.87C167.426 21.87 167.876 21.87 168.266 21.87C168.866 21.87 169.496 21.855 170.156 21.825C170.816 21.795 171.341 21.765 171.731 21.735ZM183.798 21.105C186.438 21.105 188.508 21.885 190.008 23.445C191.508 25.005 192.258 27.555 192.258 31.095H177.453L177.363 30.24H186.588C186.618 28.77 186.528 27.42 186.318 26.19C186.108 24.93 185.778 23.925 185.328 23.175C184.878 22.425 184.278 22.05 183.528 22.05C182.478 22.05 181.578 22.71 180.828 24.03C180.108 25.35 179.673 27.54 179.523 30.6L179.658 30.87C179.628 31.23 179.598 31.605 179.568 31.995C179.568 32.385 179.568 32.79 179.568 33.21C179.568 35.28 179.853 36.96 180.423 38.25C181.023 39.54 181.773 40.485 182.673 41.085C183.573 41.655 184.488 41.94 185.418 41.94C186.048 41.94 186.693 41.85 187.353 41.67C188.043 41.46 188.733 41.1 189.423 40.59C190.113 40.05 190.758 39.3 191.358 38.34L192.168 38.61C191.808 39.75 191.238 40.86 190.458 41.94C189.678 43.02 188.688 43.905 187.488 44.595C186.288 45.285 184.848 45.63 183.168 45.63C181.128 45.63 179.328 45.195 177.768 44.325C176.208 43.455 174.978 42.135 174.078 40.365C173.208 38.595 172.773 36.345 172.773 33.615C172.773 30.825 173.238 28.5 174.168 26.64C175.128 24.78 176.433 23.4 178.083 22.5C179.763 21.57 181.668 21.105 183.798 21.105ZM204.044 9.765V40.815C204.044 42.075 204.254 42.93 204.674 43.38C205.124 43.83 205.874 44.055 206.924 44.055V45C206.354 44.97 205.499 44.94 204.359 44.91C203.219 44.85 202.064 44.82 200.894 44.82C199.724 44.82 198.539 44.85 197.339 44.91C196.169 44.94 195.284 44.97 194.684 45V44.055C195.734 44.055 196.469 43.83 196.889 43.38C197.339 42.93 197.564 42.075 197.564 40.815V15.165C197.564 13.815 197.354 12.825 196.934 12.195C196.544 11.535 195.794 11.205 194.684 11.205V10.26C195.644 10.35 196.574 10.395 197.474 10.395C198.704 10.395 199.874 10.35 200.984 10.26C202.094 10.14 203.114 9.975 204.044 9.765ZM209.289 13.14C210.039 13.17 211.044 13.2 212.304 13.23C213.594 13.26 214.869 13.275 216.129 13.275C217.569 13.275 218.964 13.26 220.314 13.23C221.664 13.2 222.624 13.185 223.194 13.185C227.364 13.185 230.484 14.01 232.554 15.66C234.624 17.31 235.659 19.44 235.659 22.05C235.659 23.13 235.449 24.27 235.029 25.47C234.609 26.64 233.889 27.735 232.869 28.755C231.879 29.745 230.514 30.555 228.774 31.185C227.034 31.815 224.844 32.13 222.204 32.13H217.614V31.23H221.754C223.524 31.23 224.859 30.825 225.759 30.015C226.689 29.205 227.319 28.14 227.649 26.82C228.009 25.5 228.189 24.075 228.189 22.545C228.189 19.695 227.769 17.565 226.929 16.155C226.089 14.745 224.649 14.04 222.609 14.04C221.439 14.04 220.674 14.295 220.314 14.805C219.984 15.315 219.819 16.35 219.819 17.91V39.96C219.819 41.13 219.939 42 220.179 42.57C220.419 43.14 220.884 43.515 221.574 43.695C222.264 43.875 223.284 43.98 224.634 44.01V45C223.704 44.97 222.504 44.94 221.034 44.91C219.564 44.88 218.019 44.865 216.399 44.865C215.109 44.865 213.849 44.88 212.619 44.91C211.389 44.94 210.279 44.97 209.289 45V44.1C210.249 44.04 210.969 43.92 211.449 43.74C211.929 43.56 212.244 43.2 212.394 42.66C212.574 42.12 212.664 41.31 212.664 40.23V17.91C212.664 16.8 212.574 15.99 212.394 15.48C212.244 14.94 211.914 14.58 211.404 14.4C210.924 14.19 210.219 14.07 209.289 14.04V13.14ZM253.147 21.105C254.107 21.105 254.887 21.315 255.487 21.735C256.087 22.125 256.522 22.635 256.792 23.265C257.092 23.895 257.242 24.555 257.242 25.245C257.242 26.355 256.912 27.27 256.252 27.99C255.622 28.68 254.782 29.025 253.732 29.025C252.682 29.025 251.857 28.77 251.257 28.26C250.687 27.72 250.402 27.015 250.402 26.145C250.402 25.305 250.582 24.615 250.942 24.075C251.332 23.505 251.812 23.025 252.382 22.635C251.962 22.515 251.542 22.53 251.122 22.68C250.552 22.77 250.012 23.01 249.502 23.4C248.992 23.76 248.557 24.225 248.197 24.795C247.837 25.335 247.552 25.935 247.342 26.595C247.132 27.225 247.027 27.84 247.027 28.44V40.365C247.027 41.805 247.372 42.78 248.062 43.29C248.782 43.8 249.847 44.055 251.257 44.055V45C250.567 44.97 249.562 44.94 248.242 44.91C246.922 44.85 245.542 44.82 244.102 44.82C242.902 44.82 241.687 44.85 240.457 44.91C239.227 44.94 238.297 44.97 237.667 45V44.055C238.717 44.055 239.452 43.83 239.872 43.38C240.322 42.93 240.547 42.075 240.547 40.815V26.64C240.547 25.29 240.337 24.3 239.917 23.67C239.527 23.01 238.777 22.68 237.667 22.68V21.735C238.627 21.825 239.557 21.87 240.457 21.87C241.717 21.87 242.887 21.825 243.967 21.735C245.077 21.615 246.097 21.45 247.027 21.24V25.425C247.387 24.615 247.867 23.88 248.467 23.22C249.067 22.56 249.757 22.05 250.537 21.69C251.317 21.3 252.187 21.105 253.147 21.105ZM269.668 21.105C271.858 21.105 273.778 21.51 275.428 22.32C277.078 23.13 278.368 24.435 279.298 26.235C280.228 28.035 280.693 30.42 280.693 33.39C280.693 36.36 280.228 38.745 279.298 40.545C278.368 42.315 277.078 43.605 275.428 44.415C273.778 45.225 271.858 45.63 269.668 45.63C267.538 45.63 265.633 45.225 263.953 44.415C262.303 43.605 260.998 42.315 260.038 40.545C259.108 38.745 258.643 36.36 258.643 33.39C258.643 30.42 259.108 28.035 260.038 26.235C260.998 24.435 262.303 23.13 263.953 22.32C265.633 21.51 267.538 21.105 269.668 21.105ZM269.668 22.005C268.468 22.005 267.463 22.905 266.653 24.705C265.843 26.475 265.438 29.37 265.438 33.39C265.438 37.41 265.843 40.305 266.653 42.075C267.463 43.845 268.468 44.73 269.668 44.73C270.898 44.73 271.903 43.845 272.683 42.075C273.493 40.305 273.898 37.41 273.898 33.39C273.898 29.37 273.493 26.475 272.683 24.705C271.903 22.905 270.898 22.005 269.668 22.005Z" fill="white"/>
<path fill-rule="evenodd" clip-rule="evenodd" d="M11.76 4.94707C9.79286 6.32257 8.01402 7.94885 6.46982 9.77955C12.7801 9.19371 20.7971 10.1503 30.1048 14.8042C40.0441 19.7737 48.0477 19.9417 53.6178 18.8673C53.1124 17.3371 52.4761 15.8664 51.7224 14.4683C45.3461 15.1408 37.1717 14.2506 27.6452 9.48748C21.5957 6.46275 16.2632 5.21676 11.76 4.94707ZM47.9977 9.16665C42.9623 3.54062 35.6447 0 27.5 0C25.1082 0 22.7874 0.305397 20.5751 0.879286C23.5715 1.69687 26.7546 2.89298 30.1048 4.56812C37.0796 8.05548 43.1013 9.17835 47.9977 9.16665ZM54.8087 24.2386C48.0795 25.5674 38.7871 25.2945 27.6452 19.7235C17.2287 14.5153 8.9381 14.5809 3.34662 15.8235C3.058 15.8876 2.77618 15.9549 2.50117 16.0251C1.7691 17.6172 1.18475 19.2914 0.765466 21.0299C1.21328 20.9103 1.67603 20.7966 2.15347 20.6904C8.93692 19.183 18.5214 19.2485 30.1048 25.0403C40.5214 30.2485 48.8119 30.1829 54.4035 28.9403C54.5951 28.8978 54.7839 28.8538 54.9695 28.8084C54.9898 28.3749 55 27.9386 55 27.5C55 26.3966 54.9351 25.3082 54.8087 24.2386ZM54.0716 34.6119C47.4077 35.777 38.3859 35.3298 27.6452 29.9596C17.2287 24.7514 8.9381 24.817 3.34662 26.0595C2.10547 26.3352 0.988955 26.6711 0.00402875 27.0258C0.00134338 27.1835 0 27.3416 0 27.5C0 42.6879 12.3122 55 27.5 55C40.2285 55 50.9373 46.3525 54.0716 34.6119Z" fill="#3FD0D4"/>
</svg>
